HIERARCHY
ROOT Hips
{
	OFFSET 0.00000 0.00000 0.00000
	CHANNELS 6 Xposition Yposition Zposition Zrotation Yrotation Xrotation 
	JOINT LHipJoint
	{
		OFFSET 0 0 0
		CHANNELS 3 Zrotation Yrotation Xrotation
		JOINT LeftUpLeg
		{
			OFFSET 1.29432 -1.88279 0.59910
			CHANNELS 3 Zrotation Yrotation Xrotation
			JOINT LeftLeg
			{
				OFFSET 2.63039 -7.22694 0.00000
				CHANNELS 3 Zrotation Yrotation Xrotation
				JOINT LeftFoot
				{
					OFFSET 2.70674 -7.43672 0.00000
					CHANNELS 3 Zrotation Yrotation Xrotation
					JOINT LeftToeBase
					{
						OFFSET 0.15066 -0.41394 2.09027
						CHANNELS 3 Zrotation Yrotation Xrotation
						End Site
						{
							OFFSET 0.00000 -0.00000 1.07518
						}
					}
				}
			}
		}
	}
	JOINT RHipJoint
	{
		OFFSET 0 0 0
		CHANNELS 3 Zrotation Yrotation Xrotation
		JOINT RightUpLeg
		{
			OFFSET -1.37068 -1.88279 0.59910
			CHANNELS 3 Zrotation Yrotation Xrotation
			JOINT RightLeg
			{
				OFFSET -2.57023 -7.06166 0.00000
				CHANNELS 3 Zrotation Yrotation Xrotation
				JOINT RightFoot
				{
					OFFSET -2.76461 -7.59570 0.00000
					CHANNELS 3 Zrotation Yrotation Xrotation
					JOINT RightToeBase
					{
						OFFSET -0.24175 -0.64785 2.19719
						CHANNELS 3 Zrotation Yrotation Xrotation
						End Site
						{
							OFFSET -0.00000 -0.00000 1.14803
						}
					}
				}
			}
		}
	}
	JOINT LowerBack
	{
		OFFSET 0 0 0
		CHANNELS 3 Zrotation Yrotation Xrotation
		JOINT Spine
		{
			OFFSET -0.03138 2.03983 -0.23106
			CHANNELS 3 Zrotation Yrotation Xrotation
			JOINT Spine1
			{
				OFFSET -0.00325 2.06238 -0.06878
				CHANNELS 3 Zrotation Yrotation Xrotation
				JOINT Neck
				{
					OFFSET 0 0 0
					CHANNELS 3 Zrotation Yrotation Xrotation
					JOINT Neck1
					{
						OFFSET -0.00002 1.75318 0.18090
						CHANNELS 3 Zrotation Yrotation Xrotation
						JOINT Head
						{
							OFFSET 0.08806 1.75856 -0.25387
							CHANNELS 3 Zrotation Yrotation Xrotation
							End Site
							{
								OFFSET 0.02554 1.78597 -0.10684
							}
						}
					}
				}
				JOINT LeftShoulder
				{
					OFFSET 0 0 0
					CHANNELS 3 Zrotation Yrotation Xrotation
					JOINT LeftArm
					{
						OFFSET 3.09657 1.33597 -0.04414
						CHANNELS 3 Zrotation Yrotation Xrotation
						JOINT LeftForeArm
						{
							OFFSET 5.34298 -0.00000 -0.00000
							CHANNELS 3 Zrotation Yrotation Xrotation
							JOINT LeftHand
							{
								OFFSET 3.67262 -0.00000 -0.00000
								CHANNELS 3 Zrotation Yrotation Xrotation
								JOINT LeftFingerBase
								{
									OFFSET 0 0 0
									CHANNELS 3 Zrotation Yrotation Xrotation
									JOINT LeftHandIndex1
									{
										OFFSET 0.59930 -0.00000 -0.00000
										CHANNELS 3 Zrotation Yrotation Xrotation
										End Site
										{
											OFFSET 0.48317 -0.00000 -0.00000
										}
									}
								}
								JOINT LThumb
								{
									OFFSET 0 0 0
									CHANNELS 3 Zrotation Yrotation Xrotation
									End Site
									{
										OFFSET 0.49055 -0.00000 0.49055
									}
								}
							}
						}
					}
				}
				JOINT RightShoulder
				{
					OFFSET 0 0 0
					CHANNELS 3 Zrotation Yrotation Xrotation
					JOINT RightArm
					{
						OFFSET -3.16460 1.32273 -0.23382
						CHANNELS 3 Zrotation Yrotation Xrotation
						JOINT RightForeArm
						{
							OFFSET -5.54967 -0.01834 0.03348
							CHANNELS 3 Zrotation Yrotation Xrotation
							JOINT RightHand
							{
								OFFSET -3.69401 -0.00000 0.00000
								CHANNELS 3 Zrotation Yrotation Xrotation
								JOINT RightFingerBase
								{
									OFFSET 0 0 0
									CHANNELS 3 Zrotation Yrotation Xrotation
									JOINT RightHandIndex1
									{
										OFFSET -0.63811 -0.00000 0.00000
										CHANNELS 3 Zrotation Yrotation Xrotation
										End Site
										{
											OFFSET -0.51446 -0.00000 0.00000
										}
									}
								}
								JOINT RThumb
								{
									OFFSET 0 0 0
									CHANNELS 3 Zrotation Yrotation Xrotation
									End Site
									{
										OFFSET -0.52232 -0.00000 0.52232
									}
								}
							}
						}
					}
				}
			}
		}
	}
}
MOTION
Frames: 15
Frame Time: .0083333
9.6448 13.2518 5.0742 0 0 0 0 0 0 -21 0 0 0 0 0 0 0 0 0 0 0 0 0 0 21 0 0 0 0 0 0 0 0 0 0 0 0 0 0 0 0 0 0 0 0 0 0 -16 0 0 21 0 0 11 0 0 0 -8 0 0 0 0 0 0 0 0 0 0 0 0 0 0 0 0 0 0 0 0 8 0 0 0 0 0 0 0 0 0 0 0 0 0 0 0 0 0
9.6448 13.2518 5.0742 108.0870 -85.4412 -132.9260 0.0000 0.0000 0.0000 -7.4501 -8.9144 -42.0646 9.2053 16.9380 56.7973 0.1920 7.9582 8.9536 1.8695 8.5888 24.5174 0.0000 0.0000 0.0000 0.5285 9.0705 -45.0080 -10.9060 -17.8888 62.4759 -0.1008 -8.3163 7.6682 -0.0338 1.1873 -3.2644 2.3999 1.8673 37.7113 -1.5699 0.7776 15.8860 -3.1305 -0.3553 -1.0698 1.7327 3.6203 -15.3769 -1.8823 4.5649 2.5893 -0.5758 2.1648 3.6881 -0.0000 -0.0000 0.0000 -77.7640 -34.4076 59.9926 38.5156 -47.1654 -17.3427 -0.0000 -0.0000 24.2247 23.7689 30.3843 12.5579 -7.1250 0.0000 -0.0000 -9.1876 62.3964 -3.9023 -0.0000 -0.0000 0.0000 86.0779 29.4032 42.2944 -40.5105 48.3695 -18.8199 0.0000 0.0000 21.6735 -38.8775 30.4097 -22.2007 7.1250 -0.0000 -0.0000 -4.2664 6.9423 -4.7633
9.6434 13.2516 5.0698 111.6940 -85.5190 -136.4970 0.0000 0.0000 0.0000 -7.1009 -8.7780 -42.1571 9.2399 16.9597 56.9162 0.2269 7.4683 9.2966 1.5878 7.9487 22.5585 0.0000 0.0000 0.0000 0.8502 9.3235 -44.9468 -10.8759 -17.8738 62.3778 -0.1032 -8.4615 7.7834 -0.0419 1.3206 -3.6313 2.4352 1.9020 37.7087 -1.5070 0.8375 15.8460 -3.1020 -0.3278 -1.1082 1.5935 3.6320 -15.3009 -1.7527 4.5991 2.5918 -0.5060 2.1871 3.6663 0.0000 -0.0000 0.0000 -77.8949 -34.3788 59.8316 38.3424 -47.0566 -17.2158 -0.0000 -0.0000 24.4948 23.9997 30.2008 12.6237 -7.1250 0.0000 -0.0000 -8.8023 62.2702 -3.7111 0.0000 -0.0000 0.0000 86.1498 29.4928 42.3207 -40.4027 48.3067 -18.7394 0.0000 0.0000 21.4457 -39.0919 30.7886 -22.5808 7.1250 -0.0000 -0.0000 -4.2892 7.4405 -4.8213
9.6440 13.2523 5.0736 111.8200 -85.5222 -136.5540 0.0000 0.0000 0.0000 -7.1044 -8.7522 -42.2462 9.2336 16.9557 56.8944 0.2256 7.4723 9.2779 1.6365 8.0639 22.9083 0.0000 0.0000 0.0000 0.7890 9.4143 -44.9739 -10.8750 -17.8734 62.3751 -0.0906 -8.5779 7.6370 -0.0261 1.0431 -2.8674 2.4068 1.8821 37.7561 -1.4642 0.8205 15.7475 -3.0359 -0.3375 -1.2330 1.2675 3.5510 -15.3039 -1.4948 4.5371 2.7168 -0.3658 2.1651 3.6927 0.0000 -0.0000 0.0000 -78.0267 -34.3714 59.8228 38.1466 -46.9327 -17.0726 -0.0000 -0.0000 24.4969 24.4452 29.9802 12.7976 -7.1250 0.0000 -0.0000 -8.1457 62.1610 -3.4113 0.0000 -0.0000 0.0000 86.1038 29.4694 42.2883 -40.4127 48.3125 -18.7469 0.0000 0.0000 21.0843 -38.7123 30.8752 -22.3577 7.1250 -0.0000 -0.0000 -4.0592 7.3973 -4.5588
9.6479 13.2608 5.0755 110.9020 -85.6893 -135.5370 0.0000 0.0000 0.0000 -7.0451 -8.8825 -42.3482 9.2255 16.9507 56.8667 0.2156 7.5958 9.1712 1.7607 8.3487 23.7782 0.0000 0.0000 0.0000 0.7425 9.3047 -45.0768 -10.8762 -17.8740 62.3789 -0.0668 -8.8208 7.3746 -0.0002 0.0872 -0.2397 2.5325 1.7915 37.6710 -1.4004 0.7723 15.6889 -3.0184 -0.3515 -1.2703 1.0482 3.4439 -15.2486 -1.3454 4.4275 2.7767 -0.2863 2.1159 3.6911 -0.0000 -0.0000 0.0000 -78.1791 -34.3783 59.9170 38.0014 -46.8402 -16.9667 -0.0000 -0.0000 24.4241 24.5755 30.0377 12.8940 -7.1250 0.0000 -0.0000 -8.0274 62.2534 -3.3788 -0.0000 -0.0000 0.0000 86.0869 29.5252 42.1234 -40.3810 48.2940 -18.7232 0.0000 0.0000 20.5955 -37.4834 30.5751 -21.3098 7.1250 -0.0000 -0.0000 -3.4566 6.6297 -3.8391
9.6473 13.2662 5.0740 110.9420 -85.8985 -135.5510 0.0000 0.0000 0.0000 -6.8808 -9.0068 -42.3533 9.2172 16.9455 56.8384 0.2056 7.8437 9.1132 1.8350 8.5136 24.2852 0.0000 0.0000 0.0000 0.9366 9.1418 -45.0944 -10.8716 -17.8717 62.3640 -0.0679 -8.8796 7.4267 -0.0012 0.2251 -0.6185 2.7221 1.7092 37.5757 -1.3683 0.7439 15.6826 -3.0746 -0.3531 -1.2437 1.0507 3.4108 -15.2439 -1.2750 4.3816 2.8976 -0.2658 2.0971 3.7309 -0.0000 -0.0000 0.0000 -77.9833 -34.4741 59.9867 37.9884 -46.8319 -16.9571 -0.0000 -0.0000 24.3497 24.6709 29.5641 12.7694 -7.1250 0.0000 -0.0000 -7.6364 61.7937 -3.1303 -0.0000 -0.0000 0.0000 86.0024 29.6405 41.9709 -40.2704 48.2293 -18.6407 0.0000 0.0000 20.0997 -36.6831 30.4540 -20.6845 7.1250 -0.0000 -0.0000 -3.0421 6.2222 -3.3584
9.6446 13.2656 5.0709 110.8280 -85.8319 -135.4940 0.0000 0.0000 0.0000 -6.9504 -8.9482 -42.2673 9.2144 16.9437 56.8287 0.2006 7.9789 9.0909 1.8673 8.5841 24.5028 0.0000 0.0000 0.0000 0.9236 9.2394 -44.9597 -10.8599 -17.8659 62.3258 -0.0653 -8.9385 7.4178 -0.0026 0.3266 -0.8973 2.5990 1.7636 37.6431 -1.3711 0.7698 15.6615 -3.0214 -0.3483 -1.2899 1.0909 3.4033 -15.3991 -1.2648 4.3695 3.2258 -0.2645 2.0918 3.8800 0.0000 -0.0000 0.0000 -77.7467 -34.5696 59.9849 37.9272 -46.7928 -16.9126 -0.0000 -0.0000 24.4473 24.8268 28.9435 12.6198 -7.1250 0.0000 -0.0000 -7.1073 61.1962 -2.8116 0.0000 -0.0000 0.0000 85.8424 29.6478 42.0583 -40.1814 48.1770 -18.5743 0.0000 0.0000 19.6099 -36.9426 30.3378 -20.7981 7.1250 -0.0000 -0.0000 -3.2137 6.1826 -3.5464
9.6432 13.2679 5.0660 111.5060 -85.7381 -136.1870 0.0000 0.0000 0.0000 -6.9592 -8.8595 -42.2368 9.2167 16.9452 56.8365 0.2071 7.7556 9.1022 1.8070 8.4520 24.0955 0.0000 0.0000 0.0000 0.8960 9.3384 -44.8972 -10.8454 -17.8586 62.2786 -0.0596 -8.9464 7.3270 -0.0000 0.0001 -0.0003 2.3843 1.8380 37.5967 -1.3969 0.7836 15.6728 -2.9410 -0.3531 -1.2678 1.3367 3.4285 -15.6451 -1.4011 4.3733 3.6306 -0.3459 2.0893 4.0862 0.0000 -0.0000 0.0000 -77.5634 -34.6101 59.7634 37.7547 -46.6819 -16.7869 -0.0000 -0.0000 24.5145 24.8865 28.8702 12.6249 -7.1250 0.0000 -0.0000 -6.9985 61.1356 -2.7583 0.0000 -0.0000 0.0000 86.0652 29.5909 42.2744 -40.0822 48.1185 -18.5004 0.0000 0.0000 19.4516 -37.4372 30.3031 -21.1213 7.1250 -0.0000 -0.0000 -3.4964 6.3140 -3.8666
9.6378 13.2666 5.0657 112.0540 -85.7296 -136.7340 0.0000 0.0000 0.0000 -6.9147 -8.8593 -42.2357 9.2204 16.9475 56.8493 0.2094 7.5821 9.0733 1.7605 8.3482 23.7769 0.0000 0.0000 0.0000 1.0335 9.1461 -44.9276 -10.8335 -17.8527 62.2399 -0.0943 -8.5520 7.6841 -0.0283 1.0853 -2.9834 2.3507 1.8374 37.5068 -1.4822 0.7683 15.6733 -3.0080 -0.3569 -1.2406 1.7198 3.4636 -15.9061 -1.5998 4.3685 4.4352 -0.4260 2.0781 3.9427 0.0000 -0.0000 0.0000 -77.2609 -34.6220 59.6049 37.8877 -46.7674 -16.8837 -0.0000 -0.0000 25.0504 23.1147 29.3865 11.8296 -7.1250 0.0000 -0.0000 -9.3300 61.2198 -3.7038 0.0000 -0.0000 0.0000 86.5256 29.5251 42.3113 -39.9171 48.0207 -18.3776 0.0000 0.0000 19.6270 -38.0203 30.2026 -21.4707 7.1250 -0.0000 -0.0000 -3.8438 6.4064 -4.2578
9.6352 13.2640 5.0643 114.0270 -85.7399 -138.7560 0.0000 0.0000 0.0000 -6.8040 -8.7256 -42.1843 9.2155 16.9444 56.8324 0.1968 7.8806 8.9946 1.9621 8.7867 25.1303 0.0000 0.0000 0.0000 1.2330 9.2618 -44.8424 -10.8322 -17.8520 62.2356 -0.1053 -8.5197 7.8477 -0.0777 1.7979 -4.9476 2.5006 1.9042 37.6029 -1.4942 0.9058 15.6263 -3.1436 -0.2801 -1.3096 1.8531 3.3801 -15.9488 -1.6113 4.2385 4.7308 -0.4575 2.0163 4.0420 -0.0000 0.0000 0.0000 -77.2241 -34.6693 60.0878 37.6829 -46.6356 -16.7347 -0.0000 -0.0000 24.0925 24.4823 29.8114 12.7555 -7.1250 0.0000 -0.0000 -8.0014 61.9984 -3.3197 -0.0000 0.0000 0.0000 86.7623 29.4760 41.9608 -39.7258 47.9066 -18.2355 0.0000 0.0000 19.7603 -38.5015 30.1179 -21.7598 7.1250 -0.0000 -0.0000 -4.1310 6.4832 -4.5823
9.6394 13.2694 5.0661 112.3630 -85.5775 -137.0920 0.0000 0.0000 0.0000 -7.0764 -8.6531 -42.1508 9.2071 16.9392 56.8036 0.1844 8.1775 8.9282 2.1304 9.1325 26.2106 0.0000 0.0000 0.0000 0.9283 9.3230 -44.8692 -10.8364 -17.8541 62.2491 -0.0884 -8.6841 7.6575 -0.0323 1.1603 -3.1901 2.4631 2.0226 37.6185 -1.5326 1.0461 15.6001 -3.2103 -0.2073 -1.3352 1.7596 3.2197 -15.8959 -1.4876 4.0398 4.9610 -0.4192 1.9250 4.0973 -0.0000 0.0000 0.0000 -77.3826 -34.7634 60.5044 37.6020 -46.5832 -16.6759 -0.0000 -0.0000 24.3805 23.8768 30.4678 12.6504 -7.1250 0.0000 -0.0000 -9.1145 62.5090 -3.8952 -0.0000 0.0000 0.0000 86.8610 29.4806 41.3665 -39.4813 47.7596 -18.0543 0.0000 0.0000 19.8806 -38.6258 30.5037 -22.0765 7.1250 -0.0000 -0.0000 -4.1044 6.9554 -4.5824
9.6418 13.2729 5.0705 107.9030 -85.3391 -132.6220 0.0000 0.0000 0.0000 -7.5707 -8.7764 -42.1280 9.1958 16.9321 56.7648 0.1991 7.9117 9.0415 1.8937 8.6411 24.6790 0.0000 0.0000 0.0000 0.4046 9.0224 -45.0152 -10.8539 -17.8628 62.3061 -0.0926 -8.4752 7.6140 -0.0134 0.7485 -2.0570 2.2002 2.1022 37.5282 -1.6063 1.0630 15.5886 -3.1557 -0.2038 -1.3257 1.7502 3.1391 -15.9297 -1.4262 3.9374 5.3430 -0.4032 1.8788 4.2181 -0.0000 -0.0000 0.0000 -77.4580 -34.7764 60.7582 37.4988 -46.5162 -16.6010 -0.0000 -0.0000 24.5128 24.0353 30.0865 12.6021 -7.1250 0.0000 -0.0000 -8.6900 62.1634 -3.6415 -0.0000 -0.0000 0.0000 86.9456 29.4664 40.9399 -39.2073 47.5932 -17.8517 0.0000 0.0000 20.1520 -38.7908 30.9106 -22.4352 7.1250 -0.0000 -0.0000 -4.0934 7.4650 -4.6016
9.6309 13.2814 5.0758 113.6810 -85.8061 -138.1480 0.0000 0.0000 0.0000 -6.8197 -8.7920 -42.4020 9.2108 16.9415 56.8162 0.2150 7.5732 9.1544 1.7439 8.3109 23.6624 0.0000 0.0000 0.0000 1.1770 8.8407 -45.1920 -10.8367 -17.8542 62.2501 -0.1144 -8.1733 7.8213 -0.0483 1.4184 -3.9009 2.8634 1.9858 37.0839 -1.4871 1.1681 15.5792 -3.4108 -0.1090 -1.1674 1.8913 3.0896 -16.1621 -1.4678 3.8522 5.8377 -0.4379 1.8366 4.4108 -0.0000 0.0000 0.0000 -77.5175 -34.7817 60.9626 37.4731 -46.4994 -16.5823 -0.0000 -0.0000 24.6879 23.8242 30.1255 12.4957 -7.1250 0.0000 -0.0000 -8.9603 62.1486 -3.7526 -0.0000 0.0000 0.0000 87.0019 29.4753 40.6206 -39.0386 47.4899 -17.7273 0.0000 0.0000 20.3747 -39.0619 30.8537 -22.5977 7.1250 -0.0000 -0.0000 -4.2563 7.5013 -4.7880
9.6283 13.2635 5.0719 106.9050 -85.3967 -131.6420 0.0000 0.0000 0.0000 -7.5746 -8.8883 -42.1400 9.2172 16.9455 56.8383 0.2129 7.5604 9.1190 1.7293 8.2778 23.5612 0.0000 0.0000 0.0000 0.5323 8.6832 -45.0601 -10.8659 -17.8689 62.3454 -0.1392 -7.8678 8.0851 -0.1268 2.2957 -6.3236 2.2566 2.2064 37.3334 -1.5655 1.2203 15.6373 -3.1935 -0.1188 -1.1994 2.1864 3.0799 -16.4978 -1.6533 3.7982 6.2980 -0.5386 1.8033 4.6158 0.0000 -0.0000 0.0000 -77.6439 -34.8886 61.1492 37.4230 -46.4668 -16.5460 -0.0000 -0.0000 25.2284 23.0076 30.0777 12.0141 -7.1250 0.0000 -0.0000 -9.8773 61.8912 -4.0805 0.0000 -0.0000 0.0000 86.9009 29.5674 40.1955 -38.9125 47.4122 -17.6343 0.0000 0.0000 20.4476 -39.1308 30.8971 -22.6736 7.1250 -0.0000 -0.0000 -4.2830 7.5748 -4.8229
9.6208 13.2743 5.0778 108.3810 -85.5416 -133.0220 0.0000 0.0000 0.0000 -7.4057 -8.9132 -42.1866 9.2337 16.9558 56.8950 0.2095 7.4576 9.0296 1.6414 8.0754 22.9435 0.0000 0.0000 0.0000 0.7082 8.6495 -45.0752 -10.8658 -17.8688 62.3451 -0.1296 -7.8543 7.9209 -0.1239 2.2689 -6.2495 2.3165 2.1230 36.9785 -1.4639 1.1484 15.6753 -3.0939 -0.1503 -1.0478 2.3047 3.2383 -16.7322 -1.9174 4.0178 6.7443 -0.6133 1.8949 4.8047 -0.0000 0.0000 0.0000 -77.9417 -34.8010 60.7774 37.2535 -46.3559 -16.4232 -0.0000 -0.0000 26.2327 22.4359 30.0638 11.6868 -7.1250 0.0000 -0.0000 -10.5257 61.7320 -4.3119 -0.0000 0.0000 0.0000 86.7300 29.6314 40.3882 -38.7907 47.3369 -17.5447 0.0000 0.0000 20.5388 -39.3491 30.9120 -22.8414 7.1250 -0.0000 -0.0000 -4.3988 7.6720 -4.9604
